<svg width="320" height="56" viewBox="0 0 320 56" fill="none" xmlns="http://www.w3.org/2000/svg">
<line opacity="0.7" y1="55.5" x2="320" y2="55.5" stroke="#545454"/>
<path d="M27 4.98074V24.1068H29.7456V10.2572H29.9231L35.5638 24.0788H37.8425L43.4832 10.2666H43.6606V24.1068H46.4062V4.98074H42.9041L36.8152 19.8483H36.591L30.5021 4.98074H27Z" fill="white"/>
<path d="M57.0479 24.3963C60.1764 24.3963 62.3897 22.8554 63.0248 20.5207L60.3819 20.0444C59.8776 21.3985 58.6635 22.0896 57.0759 22.0896C54.6852 22.0896 53.0789 20.5393 53.0042 17.775H63.2022V16.7851C63.2022 11.602 60.1017 9.57548 56.8518 9.57548C52.8547 9.57548 50.2212 12.62 50.2212 17.0279C50.2212 21.4826 52.8174 24.3963 57.0479 24.3963ZM53.0135 15.6831C53.1256 13.6472 54.6011 11.8822 56.8705 11.8822C59.0371 11.8822 60.4566 13.4885 60.4659 15.6831H53.0135Z" fill="white"/>
<path d="M77.0495 13.2643C76.4705 11.0323 74.7241 9.57548 71.6236 9.57548C68.383 9.57548 66.0856 11.2845 66.0856 13.8247C66.0856 15.8606 67.3183 17.2147 70.0079 17.8124L72.4361 18.3447C73.8182 18.6529 74.4626 19.2693 74.4626 20.1658C74.4626 21.2771 73.2766 22.1456 71.4461 22.1456C69.7745 22.1456 68.7005 21.4265 68.3643 20.0164L65.6654 20.4273C66.1323 22.9675 68.2429 24.3963 71.4648 24.3963C74.9295 24.3963 77.3296 22.5565 77.3296 19.9603C77.3296 17.9338 76.0409 16.6824 73.4073 16.0753L71.1286 15.5524C69.5503 15.1788 68.8686 14.6465 68.8779 13.6753C68.8686 12.5733 70.064 11.7888 71.6516 11.7888C73.3886 11.7888 74.1918 12.7507 74.5186 13.7126L77.0495 13.2643Z" fill="white"/>
<path d="M87.0958 9.76226H84.154V6.32554H81.3617V9.76226H79.2605V12.0036H81.3617V20.474C81.3524 23.0795 83.3416 24.3403 85.5455 24.2936C86.4327 24.2842 87.0304 24.1161 87.3573 23.9947L86.853 21.688C86.6662 21.7254 86.3207 21.8094 85.8724 21.8094C84.9665 21.8094 84.154 21.5106 84.154 19.895V12.0036H87.0958V9.76226Z" fill="white"/>
<path d="M96.0728 24.3963C100.117 24.3963 102.759 21.4359 102.759 16.9999C102.759 12.5359 100.117 9.57548 96.0728 9.57548C92.0291 9.57548 89.3862 12.5359 89.3862 16.9999C89.3862 21.4359 92.0291 24.3963 96.0728 24.3963ZM96.0821 22.0522C93.4392 22.0522 92.2065 19.7455 92.2065 16.9906C92.2065 14.2449 93.4392 11.9102 96.0821 11.9102C98.7064 11.9102 99.9391 14.2449 99.9391 16.9906C99.9391 19.7455 98.7064 22.0522 96.0821 22.0522Z" fill="white"/>
<path d="M105.296 6.57458H106.068V4.08421H107.463C107.519 4.08421 107.572 4.08421 107.625 4.0811L108.97 6.57458H109.866L108.425 3.94101C109.237 3.66396 109.617 3.0009 109.617 2.15417C109.617 1.02728 108.945 0.19923 107.45 0.19923H105.296V6.57458ZM106.068 3.38691V0.884082H107.426C108.459 0.884082 108.857 1.38838 108.857 2.15417C108.857 2.91996 108.459 3.38691 107.438 3.38691H106.068Z" fill="white"/>
<path d="M113.817 4.61964C113.817 5.51617 113.132 5.92708 112.584 5.92708C111.974 5.92708 111.539 5.47882 111.539 4.78151V1.79307H110.804V4.83132C110.804 6.0516 111.451 6.63684 112.348 6.63684C113.07 6.63684 113.543 6.25083 113.767 5.76521H113.817V6.57458H114.552V1.79307H113.817V4.61964Z" fill="white"/>
<path d="M119.284 2.86393C119.054 2.1853 118.537 1.73081 117.591 1.73081C116.582 1.73081 115.835 2.30359 115.835 3.11296C115.835 3.77291 116.227 4.21495 117.105 4.42041L117.902 4.60719C118.385 4.71925 118.612 4.94961 118.612 5.27959C118.612 5.6905 118.176 6.0267 117.491 6.0267C116.89 6.0267 116.514 5.76832 116.383 5.25468L115.686 5.42901C115.857 6.24149 116.526 6.6742 117.504 6.6742C118.615 6.6742 119.372 6.06717 119.372 5.24223C119.372 4.57606 118.954 4.15581 118.101 3.94724L117.392 3.77291C116.825 3.63283 116.57 3.44294 116.57 3.07561C116.57 2.6647 117.006 2.36585 117.591 2.36585C118.232 2.36585 118.497 2.72073 118.624 3.05071L119.284 2.86393Z" fill="white"/>
<path d="M123.864 2.86393C123.634 2.1853 123.117 1.73081 122.171 1.73081C121.162 1.73081 120.415 2.30359 120.415 3.11296C120.415 3.77291 120.807 4.21495 121.685 4.42041L122.482 4.60719C122.965 4.71925 123.192 4.94961 123.192 5.27959C123.192 5.6905 122.756 6.0267 122.071 6.0267C121.47 6.0267 121.094 5.76832 120.963 5.25468L120.266 5.42901C120.437 6.24149 121.106 6.6742 122.084 6.6742C123.195 6.6742 123.951 6.06717 123.951 5.24223C123.951 4.57606 123.534 4.15581 122.681 3.94724L121.972 3.77291C121.405 3.63283 121.15 3.44294 121.15 3.07561C121.15 2.6647 121.586 2.36585 122.171 2.36585C122.812 2.36585 123.077 2.72073 123.204 3.05071L123.864 2.86393Z" fill="white"/>
<path d="M125.057 6.57458H125.792V1.79307H125.057V6.57458ZM125.431 0.996149C125.717 0.996149 125.954 0.772015 125.954 0.498074C125.954 0.224134 125.717 0 125.431 0C125.145 0 124.908 0.224134 124.908 0.498074C124.908 0.772015 125.145 0.996149 125.431 0.996149Z" fill="white"/>
<path d="M128.545 6.68665C129.379 6.68665 129.815 6.23838 129.964 5.92708H130.002V6.57458H130.736V3.42426C130.736 1.90513 129.578 1.73081 128.968 1.73081C128.246 1.73081 127.424 1.97985 127.05 2.85148L127.748 3.10051C127.91 2.75186 128.293 2.37831 128.993 2.37831C129.668 2.37831 130.002 2.7363 130.002 3.34955V3.37445C130.002 3.72933 129.64 3.6982 128.769 3.81027C127.882 3.92545 126.913 4.12156 126.913 5.21733C126.913 6.15122 127.636 6.68665 128.545 6.68665ZM128.657 6.0267C128.071 6.0267 127.648 5.76521 127.648 5.25468C127.648 4.69435 128.159 4.52002 128.731 4.44531C129.043 4.40796 129.877 4.3208 130.002 4.17137V4.84377C130.002 5.44146 129.528 6.0267 128.657 6.0267Z" fill="white"/>
</svg>
